<svg width="146" height="170" viewBox="0 0 146 170" fill="none" xmlns="http://www.w3.org/2000/svg">
<path d="M45.632 20.004C45.7806 19.9983 45.9293 20.0149 46.073 20.053C47.029 20.627 62.7 48.721 69.389 64.393H70.537C78.756 49.103 94.4271 20.244 95.7651 20.053C95.7947 20.0513 95.8244 20.0513 95.854 20.053C98.554 20.053 126.154 27.538 126.343 29.803C126.535 32.288 96.529 85.228 95.191 87.139C102.454 99.179 129.019 146.195 128.829 147.533C128.285 148.985 104.123 157.161 96.292 157.161C95.9241 157.164 95.5565 157.14 95.1921 157.089C94.0461 156.706 78.374 128.038 70.347 112.367H69.2001C61.3641 128.038 45.883 156.706 44.928 156.706C44.3791 156.793 43.8238 156.834 43.268 156.826C34.874 156.826 12.411 150.291 12.056 148.871C11.674 147.533 37.6661 99.944 45.5021 87.139C44.3541 85.419 14.923 32.479 15.114 29.994C15.114 27.801 41.358 20.007 45.634 20.007L45.632 20.004ZM45.634 8.00702C40.95 8.00702 30.811 10.964 25.183 12.727C22.296 13.627 18.135 15.004 14.717 16.41C11.317 17.81 3.43504 21.048 3.12404 29.474C2.93604 33.125 4.15704 35.915 8.95204 45.224C11.479 50.13 14.952 56.643 19.262 64.582C22.928 71.329 28.085 80.7 31.63 87.027C26.938 95.137 20.45 106.833 15.155 116.573C11.196 123.854 7.80802 130.209 5.35502 134.954C0.698023 143.967 -0.898974 147.054 0.476026 152.029C2.25403 158.6 8.26903 160.737 11.882 162.021C14.489 162.947 17.911 163.993 21.517 164.966C26.857 166.408 36.783 168.826 43.265 168.826C44.3051 168.832 45.3443 168.765 46.375 168.626C52.089 167.967 54.975 163.526 55.975 161.992C56.606 161.022 57.394 159.724 58.384 158.024C60.078 155.118 62.371 151.013 65.016 146.154C66.597 143.254 68.236 140.203 69.861 137.149C71.539 140.249 73.224 143.34 74.837 146.263C77.537 151.157 79.878 155.293 81.604 158.228C84.789 163.644 86.71 166.913 91.384 168.473L92.366 168.801L93.388 168.956C94.3481 169.098 95.3175 169.167 96.288 169.163C102.275 169.163 111.88 166.541 118.883 164.342C122.627 163.166 126.223 161.915 129.011 160.817C133.011 159.241 137.988 157.281 140.062 151.747L140.52 150.523L140.705 149.23C141.33 144.848 140.039 142.452 135.236 133.536C132.783 128.984 129.336 122.742 125.269 115.484C119.449 105.101 113.351 94.406 109.105 87.116C113.127 80.101 118.955 69.695 121.832 64.508C126.226 56.584 129.769 50.063 132.365 45.125C137.447 35.45 138.605 32.791 138.304 28.883V28.847V28.81C137.614 20.51 129.895 17.549 126.185 16.123C122.738 14.799 118.449 13.463 115.457 12.576C109.766 10.887 99.657 8.05499 95.857 8.05499C95.462 8.05499 95.0651 8.07297 94.6791 8.10797L94.373 8.13501L94.073 8.17902C87.954 9.05402 85.258 13.54 82.136 18.735C80.427 21.579 78.114 25.608 75.263 30.713C73.748 33.424 72.156 36.303 70.563 39.213C68.894 35.994 67.356 33.105 66.163 30.881C63.796 26.481 61.463 22.274 59.587 19.028C56.64 13.922 55.295 11.591 52.267 9.77301L51.133 9.09198L49.879 8.67401C48.5139 8.22407 47.0844 8.00009 45.647 8.01099L45.634 8.00702Z" fill="black"/>
<path d="M50.637 11.997C50.7853 11.9912 50.9336 12.0078 51.077 12.046C52.034 12.62 67.705 40.714 74.394 56.386H75.537C83.754 41.096 99.426 12.238 100.764 12.046C100.794 12.0444 100.824 12.0444 100.854 12.046C103.554 12.046 131.154 19.531 131.344 21.796C131.536 24.282 101.529 77.221 100.191 79.132C107.454 91.172 134.02 138.188 133.829 139.526C133.284 140.978 109.122 149.154 101.292 149.154C100.924 149.157 100.556 149.133 100.192 149.082C99.0461 148.7 83.374 120.032 75.347 104.36H74.2001C66.3641 120.032 50.883 148.7 49.927 148.7C49.3781 148.787 48.8227 148.826 48.267 148.819C39.874 148.819 17.411 142.285 17.056 140.864C16.673 139.526 42.6661 91.937 50.5021 79.132C49.3541 77.413 19.921 24.472 20.113 21.987C20.113 19.794 46.357 12 50.634 12L50.637 11.997ZM50.634 0C45.95 0 35.81 2.95697 30.183 4.71997C27.295 5.61997 23.135 6.99702 19.717 8.40302C16.317 9.80302 8.43503 13.041 8.12303 21.467C7.93503 25.119 9.15603 27.909 13.951 37.217C16.478 42.123 19.951 48.636 24.261 56.576C27.927 63.322 33.085 72.693 36.629 79.02C31.937 87.13 25.449 98.827 20.154 108.566C16.195 115.847 12.808 122.203 10.354 126.947C5.69802 135.96 4.10002 139.047 5.47502 144.022C7.25202 150.593 13.269 152.73 16.881 154.014C19.489 154.94 22.911 155.986 26.516 156.959C31.856 158.401 41.782 160.819 48.264 160.819C49.3044 160.825 50.344 160.758 51.375 160.619C57.088 159.959 59.975 155.519 60.975 153.984C61.606 153.014 62.393 151.716 63.383 150.016C65.077 147.11 67.37 143.005 70.016 138.146C71.596 135.246 73.236 132.195 74.861 129.141C76.538 132.241 78.223 135.332 79.837 138.255C82.537 143.149 84.878 147.286 86.604 150.22C89.788 155.636 91.704 158.905 96.384 160.465L97.366 160.793L98.387 160.948C99.3471 161.09 100.317 161.159 101.287 161.155C107.273 161.155 116.878 158.534 123.882 156.334C127.624 155.159 131.222 153.907 134.009 152.809C138.009 151.233 142.986 149.273 145.06 143.739L145.519 142.515L145.703 141.222C146.328 136.84 145.037 134.444 140.234 125.528C137.783 120.976 134.334 114.734 130.267 107.476C124.449 97.093 118.349 86.398 114.105 79.108C118.126 72.093 123.955 61.687 126.83 56.5C131.224 48.577 134.769 42.055 137.363 37.118C142.447 27.442 143.605 24.784 143.302 20.875V20.839V20.802C142.613 12.502 134.894 9.54097 131.185 8.11597C127.736 6.79097 123.447 5.45599 120.457 4.56799C114.765 2.87899 104.651 0.0469971 100.857 0.0469971C100.457 0.0469971 100.064 0.0649756 99.6791 0.0999756L99.373 0.127014L99.073 0.171021C92.954 1.04602 90.259 5.53299 87.136 10.727C85.428 13.571 83.115 17.6 80.262 22.706C78.749 25.416 77.1621 28.295 75.5621 31.206C73.8941 27.986 72.356 25.097 71.162 22.874C68.795 18.474 66.462 14.266 64.586 11.02C61.639 5.92002 60.293 3.58301 57.266 1.76501L56.132 1.08398L54.878 0.666992C53.513 0.21634 52.0835 -0.00795678 50.646 0.00299072L50.634 0Z" fill="black"/>
<path d="M71.188 104.356C63.352 120.028 47.872 148.696 46.917 148.696C40.417 149.842 14.426 142.389 14.044 140.86C13.662 139.522 39.653 91.933 47.489 79.128C46.342 77.409 16.911 24.468 17.101 21.983C17.101 19.691 45.769 11.283 48.063 12.045C49.018 12.619 64.69 40.713 71.38 56.385H72.526C80.745 41.095 96.415 12.237 97.753 12.045C99.853 11.855 128.141 19.498 128.333 21.792C128.524 24.278 98.518 77.217 97.18 79.128C104.442 91.168 131.008 138.184 130.817 139.522C130.245 141.051 103.487 150.034 97.18 149.078C96.034 148.696 80.362 120.028 72.335 104.356H71.188Z" fill="#FCD015"/>
<path d="M97.677 149.078C96.531 148.696 80.859 120.028 72.837 104.356H71.685C63.849 120.028 48.369 148.696 47.414 148.696C41.631 149.716 20.405 143.924 15.537 141.56V138.37C20.32 128.27 40.919 90.715 47.883 79.297H97.783C105.189 91.603 131.508 138.19 131.319 139.521C130.775 140.973 106.619 149.147 98.783 149.148C98.4131 149.152 98.0434 149.129 97.677 149.078Z" fill="#FBB500"/>
<path d="M101.189 152.103C100.695 152.106 100.202 152.072 99.7138 152.003L99.2138 151.882C97.8548 151.428 97.2918 151.24 87.6958 133.859C83.3828 126.048 78.5568 117.053 74.7688 109.783C71.1098 116.953 66.3818 125.913 62.0908 133.795C52.7408 150.967 52.0778 151.627 50.1398 151.652C45.5618 152.296 35.8628 150.058 30.4168 148.643C14.8838 144.608 14.4768 142.982 14.1168 141.543C13.7168 140.164 13.5298 139.491 28.0328 112.816C35.4718 99.1329 43.0028 85.7239 46.9838 79.0569C44.5208 74.7469 38.0908 63.1789 32.1418 52.2299C17.1778 24.6919 17.0018 22.9809 17.0888 21.7739C17.1394 21.1698 17.3309 20.586 17.648 20.0693C17.9652 19.5526 18.399 19.1175 18.9148 18.7989C22.6288 16.1209 48.0668 7.84594 51.9948 9.15394L52.3088 9.25392L52.5928 9.42494C53.2398 9.81394 54.2178 10.4019 63.1928 27.0819C65.5978 31.5489 71.0388 41.8149 75.1338 50.6989C97.3618 9.44693 98.3088 9.31195 100.309 9.02595L100.463 9.00795C103.589 8.73095 129.095 15.7679 132.899 18.9619C133.291 19.2672 133.618 19.6491 133.859 20.0843C134.099 20.5195 134.249 20.9991 134.299 21.4939C134.399 22.7449 134.499 24.0189 118.931 52.0809C112.785 63.1639 106.216 74.7379 103.658 79.0859C107.608 85.7399 115.334 99.2389 122.388 111.822C137.04 137.965 136.953 138.57 136.764 139.898L136.718 140.22L136.604 140.52C136.17 141.68 135.576 143.268 120.004 148.047C114.869 149.641 106.064 152.103 101.189 152.103ZM72.3198 101.318H77.1548L77.9908 102.95C85.9598 118.507 98.4908 141.309 101.671 146.123C107.429 145.973 124.152 140.709 129.978 138.223C125.269 128.913 104.885 92.7229 97.5968 80.6379L96.5888 78.9669L97.7088 77.3669C99.3978 74.8389 123.368 32.4439 127.739 22.8529C122.721 20.5819 107.008 16.127 101.974 15.177C99.6218 18.667 92.4138 31.2379 78.1548 57.7649L77.3048 59.3449H72.3838L71.6058 57.5229C65.5418 43.3139 52.8568 20.4019 49.5338 15.0579C44.5898 15.8109 28.5958 20.5689 23.6248 22.9769C27.8098 32.3579 51.4528 75.0449 52.9808 77.4409L53.9898 79.0209L53.0338 80.6539C45.9338 92.2639 25.3338 129.954 20.7948 139.464C26.5208 141.664 42.6808 145.876 48.3758 145.787C51.5138 141.009 64.1608 117.633 71.4908 102.974L72.3198 101.318Z" fill="#FCD015"/>
<path d="M4.86002 23.603L9.98703 15.398L14.317 23.034C14.317 23.034 11.708 28.805 11.47 28.963C11.232 29.121 4.86002 23.603 4.86002 23.603Z" fill="black"/>
<path d="M144.374 145.263L138.518 154.634L130.991 149.155L138.56 139.386L144.374 145.263Z" fill="black"/>
</svg>
